#Comment line ignore any data following # character 
#Hierarchical Translation and Rotation (.htr) file 
[Header]	
#Header keywords are followed by a single value 
FileType HTR		#Single word string
DataType HTRS		#Translation followed by rotation and scale data
FileVersion 1		#integer
NumSegments 84		#integer
NumFrames 2		#integer
DataFrameRate 30		#integer, data frame rate in this file
EulerRotationOrder ZYX
CalibrationUnits mm
RotationUnits Degrees
GlobalAxisofGravity Y
BoneLengthAxis Y
ScaleFactor 1.00
[SegmentNames&Hierarchy]
#CHILD	PARENT
MASTER GLOBAL
root MASTER
chest root
L_mid_tent01 root
R_mid_tent01 root
spine01 root
Bip01_Neck chest
L_humerus chest
R_humerus chest
weapon_bone chest
Bip01_Head Bip01_Neck
eye_left_bone Bip01_Head
eye_right_bone Bip01_Head
L_forearm L_humerus
L_front_hand L_forearm
L_weapon_bone L_forearm
L_front_hand01_01 L_front_hand
L_front_hand02_01 L_front_hand
L_front_hand03_01 L_front_hand
L_front_hand01_02 L_front_hand01_01
L_front_hand02_02 L_front_hand02_01
L_front_hand03_02 L_front_hand03_01
R_forearm R_humerus
R_front_hand R_forearm
R_weapon_bone R_forearm
R_front_hand01_01 R_front_hand
R_front_hand02_01 R_front_hand
R_front_hand03_01 R_front_hand
R_front_hand01_02 R_front_hand01_01
R_front_hand02_02 R_front_hand02_01
R_front_hand03_02 R_front_hand03_01
null_rope01_connect L_mid_tent01
Rope1_Seg01 null_rope01_connect
Rope1_Seg02 Rope1_Seg01
Rope1_Seg03 Rope1_Seg02
Rope1_Seg04 Rope1_Seg03
Rope1_Seg05 Rope1_Seg04
Rope1_Seg06 Rope1_Seg05
Rope1_Seg07 Rope1_Seg06
Rope1_Seg09 Rope1_Seg07
L_mid_hand01 Rope1_Seg09
L_mid_hand02 Rope1_Seg09
L_mid_hand03 Rope1_Seg09
null_rope02_connect R_mid_tent01
Rope2_Seg01 null_rope02_connect
Rope2_Seg02 Rope2_Seg01
Rope2_Seg03 Rope2_Seg02
Rope2_Seg04 Rope2_Seg03
Rope2_Seg05 Rope2_Seg04
Rope2_Seg06 Rope2_Seg05
Rope2_Seg07 Rope2_Seg06
Rope2_Seg09 Rope2_Seg07
R_mid_hand01 Rope2_Seg09
R_mid_hand02 Rope2_Seg09
R_mid_hand03 Rope2_Seg09
spine02 spine01
spine03 spine02
pelvis spine03
null_rope03_connect pelvis
null_rope04_connect pelvis
Rope3_Seg01 null_rope03_connect
Rope3_Seg02 Rope3_Seg01
Rope3_Seg03 Rope3_Seg02
Rope3_Seg04 Rope3_Seg03
Rope3_Seg05 Rope3_Seg04
Rope3_Seg06 Rope3_Seg05
Rope3_Seg07 Rope3_Seg06
Rope3_Seg08 Rope3_Seg07
Rope3_Seg09 Rope3_Seg08
R_rear_hand01 Rope3_Seg09
R_rear_hand02 Rope3_Seg09
R_rear_hand03 Rope3_Seg09
Rope4_Seg01 null_rope04_connect
Rope4_Seg02 Rope4_Seg01
Rope4_Seg03 Rope4_Seg02
Rope4_Seg04 Rope4_Seg03
Rope4_Seg05 Rope4_Seg04
Rope4_Seg06 Rope4_Seg05
Rope4_Seg07 Rope4_Seg06
Rope4_Seg08 Rope4_Seg07
Rope4_Seg09 Rope4_Seg08
L_rear_hand01 Rope4_Seg09
L_rear_hand02 Rope4_Seg09
L_rear_hand03 Rope4_Seg09
[BasePosition]
#SegmentName Tx, Ty, Tz, Rx, Ry, Rz, BoneLength
MASTER 0.000000 0.000000 0.000000 -90.000000 0.000000 0.000000 10.000000 
root 0.000000 0.000000 0.000000 0.000000 0.000000 0.000000 10.000000 
chest 0.000000 0.000000 0.000000 0.000000 0.000000 0.000000 10.000000 
L_mid_tent01 0.000000 0.000000 0.000000 0.000000 0.000000 0.000000 10.000000 
R_mid_tent01 0.000000 0.000000 0.000000 0.000000 0.000000 0.000000 10.000000 
spine01 0.000000 0.000000 0.000000 0.000000 0.000000 0.000000 10.000000 
Bip01_Neck 0.000000 0.000000 0.000000 0.000000 0.000000 0.000000 10.000000 
L_humerus 0.000000 0.000000 0.000000 0.000000 0.000000 0.000000 10.000000 
R_humerus 0.000000 0.000000 0.000000 0.000000 0.000000 0.000000 10.000000 
weapon_bone 0.000000 0.000000 0.000000 0.000000 0.000000 0.000000 10.000000 
Bip01_Head 0.000000 0.000000 0.000000 0.000000 0.000000 0.000000 10.000000 
eye_left_bone 0.000000 0.000000 0.000000 0.000000 0.000000 0.000000 10.000000 
eye_right_bone 0.000000 0.000000 0.000000 0.000000 0.000000 0.000000 10.000000 
L_forearm 0.000000 0.000000 0.000000 0.000000 0.000000 0.000000 10.000000 
L_front_hand 0.000000 0.000000 0.000000 0.000000 0.000000 0.000000 10.000000 
L_weapon_bone 0.000000 0.000000 0.000000 0.000000 0.000000 0.000000 10.000000 
L_front_hand01_01 0.000000 0.000000 0.000000 0.000000 0.000000 0.000000 10.000000 
L_front_hand02_01 0.000000 0.000000 0.000000 0.000000 0.000000 0.000000 10.000000 
L_front_hand03_01 0.000000 0.000000 0.000000 0.000000 0.000000 0.000000 10.000000 
L_front_hand01_02 0.000000 0.000000 0.000000 0.000000 0.000000 0.000000 10.000000 
L_front_hand02_02 0.000000 0.000000 0.000000 0.000000 0.000000 0.000000 10.000000 
L_front_hand03_02 0.000000 0.000000 0.000000 0.000000 0.000000 0.000000 10.000000 
R_forearm 0.000000 0.000000 0.000000 0.000000 0.000000 0.000000 10.000000 
R_front_hand 0.000000 0.000000 0.000000 0.000000 0.000000 0.000000 10.000000 
R_weapon_bone 0.000000 0.000000 0.000000 0.000000 0.000000 0.000000 10.000000 
R_front_hand01_01 0.000000 0.000000 0.000000 0.000000 0.000000 0.000000 10.000000 
R_front_hand02_01 0.000000 0.000000 0.000000 0.000000 0.000000 0.000000 10.000000 
R_front_hand03_01 0.000000 0.000000 0.000000 0.000000 0.000000 0.000000 10.000000 
R_front_hand01_02 0.000000 0.000000 0.000000 0.000000 0.000000 0.000000 10.000000 
R_front_hand02_02 0.000000 0.000000 0.000000 0.000000 0.000000 0.000000 10.000000 
R_front_hand03_02 0.000000 0.000000 0.000000 0.000000 0.000000 0.000000 10.000000 
null_rope01_connect 0.000000 0.000000 0.000000 0.000000 0.000000 0.000000 10.000000 
Rope1_Seg01 0.000000 0.000000 0.000000 0.000000 0.000000 0.000000 10.000000 
Rope1_Seg02 0.000000 0.000000 0.000000 0.000000 0.000000 0.000000 10.000000 
Rope1_Seg03 0.000000 0.000000 0.000000 0.000000 0.000000 0.000000 10.000000 
Rope1_Seg04 0.000000 0.000000 0.000000 0.000000 0.000000 0.000000 10.000000 
Rope1_Seg05 0.000000 0.000000 0.000000 0.000000 0.000000 0.000000 10.000000 
Rope1_Seg06 0.000000 0.000000 0.000000 0.000000 0.000000 0.000000 10.000000 
Rope1_Seg07 0.000000 0.000000 0.000000 0.000000 0.000000 0.000000 10.000000 
Rope1_Seg09 0.000000 0.000000 0.000000 0.000000 0.000000 0.000000 10.000000 
L_mid_hand01 0.000000 0.000000 0.000000 0.000000 0.000000 0.000000 10.000000 
L_mid_hand02 0.000000 0.000000 0.000000 0.000000 0.000000 0.000000 10.000000 
L_mid_hand03 0.000000 0.000000 0.000000 0.000000 0.000000 0.000000 10.000000 
null_rope02_connect 0.000000 0.000000 0.000000 0.000000 0.000000 0.000000 10.000000 
Rope2_Seg01 0.000000 0.000000 0.000000 0.000000 0.000000 0.000000 10.000000 
Rope2_Seg02 0.000000 0.000000 0.000000 0.000000 0.000000 0.000000 10.000000 
Rope2_Seg03 0.000000 0.000000 0.000000 0.000000 0.000000 0.000000 10.000000 
Rope2_Seg04 0.000000 0.000000 0.000000 0.000000 0.000000 0.000000 10.000000 
Rope2_Seg05 0.000000 0.000000 0.000000 0.000000 0.000000 0.000000 10.000000 
Rope2_Seg06 0.000000 0.000000 0.000000 0.000000 0.000000 0.000000 10.000000 
Rope2_Seg07 0.000000 0.000000 0.000000 0.000000 0.000000 0.000000 10.000000 
Rope2_Seg09 0.000000 0.000000 0.000000 0.000000 0.000000 0.000000 10.000000 
R_mid_hand01 0.000000 0.000000 0.000000 0.000000 0.000000 0.000000 10.000000 
R_mid_hand02 0.000000 0.000000 0.000000 0.000000 0.000000 0.000000 10.000000 
R_mid_hand03 0.000000 0.000000 0.000000 0.000000 0.000000 0.000000 10.000000 
spine02 0.000000 0.000000 0.000000 0.000000 0.000000 0.000000 10.000000 
spine03 0.000000 0.000000 0.000000 0.000000 0.000000 0.000000 10.000000 
pelvis 0.000000 0.000000 0.000000 0.000000 0.000000 0.000000 10.000000 
null_rope03_connect 0.000000 0.000000 0.000000 0.000000 0.000000 0.000000 10.000000 
null_rope04_connect 0.000000 0.000000 0.000000 0.000000 0.000000 0.000000 10.000000 
Rope3_Seg01 0.000000 0.000000 0.000000 0.000000 0.000000 0.000000 10.000000 
Rope3_Seg02 0.000000 0.000000 0.000000 0.000000 0.000000 0.000000 10.000000 
Rope3_Seg03 0.000000 0.000000 0.000000 0.000000 0.000000 0.000000 10.000000 
Rope3_Seg04 0.000000 0.000000 0.000000 0.000000 0.000000 0.000000 10.000000 
Rope3_Seg05 0.000000 0.000000 0.000000 0.000000 0.000000 0.000000 10.000000 
Rope3_Seg06 0.000000 0.000000 0.000000 0.000000 0.000000 0.000000 10.000000 
Rope3_Seg07 0.000000 0.000000 0.000000 0.000000 0.000000 0.000000 10.000000 
Rope3_Seg08 0.000000 0.000000 0.000000 0.000000 0.000000 0.000000 10.000000 
Rope3_Seg09 0.000000 0.000000 0.000000 0.000000 0.000000 0.000000 10.000000 
R_rear_hand01 0.000000 0.000000 0.000000 0.000000 0.000000 0.000000 10.000000 
R_rear_hand02 0.000000 0.000000 0.000000 0.000000 0.000000 0.000000 10.000000 
R_rear_hand03 0.000000 0.000000 0.000000 0.000000 0.000000 0.000000 10.000000 
Rope4_Seg01 0.000000 0.000000 0.000000 0.000000 0.000000 0.000000 10.000000 
Rope4_Seg02 0.000000 0.000000 0.000000 0.000000 0.000000 0.000000 10.000000 
Rope4_Seg03 0.000000 0.000000 0.000000 0.000000 0.000000 0.000000 10.000000 
Rope4_Seg04 0.000000 0.000000 0.000000 0.000000 0.000000 0.000000 10.000000 
Rope4_Seg05 0.000000 0.000000 0.000000 0.000000 0.000000 0.000000 10.000000 
Rope4_Seg06 0.000000 0.000000 0.000000 0.000000 0.000000 0.000000 10.000000 
Rope4_Seg07 0.000000 0.000000 0.000000 0.000000 0.000000 0.000000 10.000000 
Rope4_Seg08 0.000000 0.000000 0.000000 0.000000 0.000000 0.000000 10.000000 
Rope4_Seg09 0.000000 0.000000 0.000000 0.000000 0.000000 0.000000 10.000000 
L_rear_hand01 0.000000 0.000000 0.000000 0.000000 0.000000 0.000000 10.000000 
L_rear_hand02 0.000000 0.000000 0.000000 0.000000 0.000000 0.000000 10.000000 
L_rear_hand03 0.000000 0.000000 0.000000 0.000000 0.000000 0.000000 10.000000 
#Beginning of Data. Separated by tabs
#Fr	Tx	Ty	Tz	Rx	Ry	Rz	SF
[MASTER]
25 -5405.949707 -0.000818 0.000000 0.001228 0.002001 -26.927443 5405.949707
26 -5449.149414 -0.000825 0.000000 0.001225 0.002002 -27.054605 5449.149902
[root]
25 -16.502380 -62.822163 1500.000000 -91.629700 -27.676081 -90.148109 1501.405640
26 -16.502380 -62.822266 1500.000000 -91.629723 -27.676090 -90.148125 1501.405640
[chest]
25 -84.512650 -34.090519 0.000000 -4.086637 1.534406 -177.873642 91.129311
26 -84.512650 -34.090519 0.000000 -4.086638 1.534406 -177.873642 91.129311
[L_mid_tent01]
25 27.299789 22.177578 -249.918472 3.862628 36.229202 81.347610 252.381393
26 27.299805 22.177580 -249.918503 3.862628 36.229202 81.347610 252.381424
[R_mid_tent01]
25 23.228794 24.509907 226.238495 160.432037 -47.061241 87.899765 228.744751
26 23.228794 24.509907 226.238495 160.432037 -47.061249 87.899780 228.744751
[spine01]
25 -0.361383 -0.195265 0.000000 -0.419415 0.320593 11.076404 0.410763
26 -0.361383 -0.195265 0.000000 -0.419415 0.320593 11.076404 0.410763
[Bip01_Neck]
25 165.484543 71.581718 0.000119 175.896118 1.177290 24.871183 180.302734
26 165.484543 71.581718 0.000119 175.896118 1.177290 24.871187 180.302734
[L_humerus]
25 -13.983130 -135.272980 -120.471481 170.940796 81.564224 -99.189163 181.680161
26 -13.983130 -135.272980 -120.471481 170.940842 81.564316 -99.189255 181.680161
[R_humerus]
25 -13.983309 -135.273102 125.287651 -159.666046 -68.957870 -101.166077 184.909012
26 -13.983309 -135.273102 125.287651 -159.666061 -68.957893 -101.166092 184.909012
[weapon_bone]
25 235.964890 -300.705902 0.000000 0.000000 -89.951546 -128.212341 382.234833
26 235.964890 -300.705902 0.000000 0.000000 -89.951546 -128.212341 382.234833
[Bip01_Head]
25 250.858246 122.464188 -0.291462 1.168686 6.252616 -61.086330 279.154846
26 261.355713 108.959656 -2.864075 2.248029 5.843378 -62.458359 283.173492
[eye_left_bone]
25 -24.626970 125.451866 -64.772606 0.000000 -90.000000 -99.840431 143.318359
26 -24.626970 125.451866 -64.772606 0.000000 -90.000000 -99.840431 143.318359
[eye_right_bone]
25 -24.626970 125.451866 64.327362 0.000000 -89.960434 80.159386 143.117676
26 -24.626970 125.451866 64.327362 0.000000 -90.000000 80.159393 143.117676
[L_forearm]
25 322.776093 0.000000 -0.000119 0.000183 0.002340 -81.045212 322.776093
26 322.776093 0.000000 -0.000119 0.000183 0.002340 -81.045219 322.776093
[L_front_hand]
25 241.149185 -0.042021 -3.300071 -177.732910 -0.049191 -80.028023 241.171753
26 241.149185 -0.042021 -3.300071 -177.732910 -0.049191 -80.028046 241.171753
[L_weapon_bone]
25 156.183838 0.000000 0.000000 0.001660 0.001660 0.001660 156.183838
26 156.183838 0.000000 0.000000 0.001660 0.001660 0.001660 156.183838
[L_front_hand01_01]
25 86.095154 20.947098 -0.655860 0.405585 -0.442306 -4.620490 88.609184
26 86.095154 20.947098 -0.655860 0.405585 -0.442306 -4.620491 88.609184
[L_front_hand02_01]
25 86.935165 -11.437475 24.513514 116.959450 3.630817 1.495453 91.046425
26 86.935165 -11.437475 24.513514 116.959465 3.630819 1.495453 91.046425
[L_front_hand03_01]
25 86.637497 -14.123976 -20.424902 -118.420097 -4.656303 -0.152527 90.126129
26 86.637497 -14.123976 -20.424902 -118.420113 -4.656304 -0.152527 90.126129
[L_front_hand01_02]
25 71.020905 -0.000179 0.000030 0.001534 0.001777 -8.378850 71.020905
26 71.020905 -0.000179 0.000030 0.001534 0.001777 -8.378851 71.020905
[L_front_hand02_02]
25 71.020927 -0.000119 0.000060 0.001534 0.001777 -8.378850 71.020927
26 71.020927 -0.000119 0.000060 0.001534 0.001777 -8.378851 71.020927
[L_front_hand03_02]
25 71.020905 -0.000060 0.000060 0.001534 0.001777 -8.378850 71.020905
26 71.020905 -0.000060 0.000060 0.001534 0.001777 -8.378851 71.020905
[R_forearm]
25 322.776428 -0.000060 0.000030 0.202513 -0.063871 -72.666046 322.776428
26 322.776428 -0.000060 0.000030 0.202513 -0.063871 -72.666046 322.776428
[R_front_hand]
25 238.847015 -0.006795 2.210259 -1.676069 -0.420464 -92.752876 238.857239
26 238.847015 -0.006795 2.210259 -1.676069 -0.420464 -92.752892 238.857239
[R_weapon_bone]
25 155.664093 0.002503 -0.000030 0.003487 0.001180 -90.988930 155.664078
26 155.664093 0.002503 -0.000030 0.003487 0.001180 -90.988930 155.664078
[R_front_hand01_01]
25 87.624611 14.231146 22.918642 -116.960213 3.496675 -1.324139 91.683487
26 87.624611 14.231146 22.918642 -116.960213 3.496675 -1.324139 91.683487
[R_front_hand02_01]
25 89.356956 14.367283 -19.491137 118.419647 -4.257089 0.609827 92.579636
26 89.356956 14.367283 -19.491137 118.419647 -4.257089 0.609828 92.579636
[R_front_hand03_01]
25 87.286232 -22.307278 -0.143439 -0.387970 -0.231462 4.232001 90.091743
26 87.286232 -22.307278 -0.143439 -0.387970 -0.231462 4.232001 90.091743
[R_front_hand01_02]
25 71.020905 0.000060 0.000119 0.001777 0.001534 8.377220 71.020905
26 71.020905 0.000060 0.000119 0.001777 0.001534 8.377221 71.020905
[R_front_hand02_02]
25 71.020844 -0.000030 -0.000119 0.001777 0.001534 8.377220 71.020836
26 71.020844 -0.000030 -0.000119 0.001777 0.001534 8.377221 71.020836
[R_front_hand03_02]
25 71.020905 0.000000 0.000030 0.001777 0.001534 8.377220 71.020905
26 71.020905 0.000000 0.000030 0.001777 0.001534 8.377221 71.020905
[null_rope01_connect]
25 328.732483 0.000000 -0.000238 -122.034088 -30.886950 152.338577 328.732483
26 328.732483 0.000000 -0.000238 -121.992012 -30.781744 152.262695 328.732483
[Rope1_Seg01]
25 0.000000 0.000000 0.000000 89.002869 47.362610 105.252045 0.000000
26 0.000000 0.000000 0.000000 88.237793 46.149357 104.163605 0.000000
[Rope1_Seg02]
25 139.999863 -0.000179 0.000000 -1.156518 -8.583215 1.487166 139.999863
26 139.999863 -0.000179 0.000000 -1.376386 -8.943175 1.443886 139.999863
[Rope1_Seg03]
25 139.999924 0.000060 -0.000060 -3.304441 -13.099575 1.387192 139.999924
26 139.999924 0.000060 -0.000060 -3.724731 -13.339351 0.776154 139.999924
[Rope1_Seg04]
25 139.999924 -0.000060 -0.000119 -10.046489 -21.317036 0.619168 139.999924
26 139.999924 -0.000060 -0.000119 -10.387121 -21.035702 0.420185 139.999924
[Rope1_Seg05]
25 139.999832 0.000119 -0.000060 -10.800727 -16.863356 6.178167 139.999832
26 139.999832 0.000119 -0.000060 -9.877054 -16.277134 7.733739 139.999832
[Rope1_Seg06]
25 139.999954 0.000119 -0.000060 -5.949162 -6.626252 1.675851 139.999954
26 139.999954 0.000119 -0.000060 -6.059006 -6.652531 2.100456 139.999954
[Rope1_Seg07]
25 139.999985 0.000060 0.000000 -4.634707 -3.721783 0.107756 139.999985
26 139.999985 0.000060 0.000000 -4.796849 -3.730658 0.370939 139.999985
[Rope1_Seg09]
25 121.602913 0.000119 -0.000089 -89.793175 -1.359789 0.847147 121.602913
26 121.602913 0.000119 -0.000089 -89.793175 -1.359789 0.847147 121.602913
[L_mid_hand01]
25 103.859421 1.038730 8.195221 105.620987 -22.988335 -6.761933 104.187431
26 103.859421 1.038730 8.195221 105.621002 -22.988338 -6.761934 104.187431
[L_mid_hand02]
25 105.572853 -4.139662 -10.864139 -139.491974 20.327143 -21.528740 106.211075
26 105.572853 -4.139662 -10.864139 -139.491974 20.327143 -21.528740 106.211075
[L_mid_hand03]
25 104.641464 17.579376 -3.913581 -17.354424 7.254999 25.905664 106.179977
26 104.641464 17.579376 -3.913581 -17.354425 7.255000 25.905668 106.179977
[null_rope02_connect]
25 328.732849 0.000179 -0.000119 -148.456650 60.781818 -12.797240 328.732849
26 328.732849 0.000179 -0.000119 -148.654388 60.846195 -13.023269 328.732849
[Rope2_Seg01]
25 -0.000040 0.000134 0.000153 -71.562202 46.987759 21.155401 0.000207
26 -0.000038 0.000134 0.000153 -69.658806 45.864433 22.776388 0.000206
[Rope2_Seg02]
25 139.999741 -0.000060 -0.000119 1.190414 -6.599483 0.433396 139.999756
26 139.999741 -0.000060 -0.000119 1.154471 -6.261059 0.295162 139.999756
[Rope2_Seg03]
25 140.000107 0.000030 0.000000 0.689184 -7.206275 1.122847 140.000107
26 140.000107 0.000030 0.000000 0.564237 -6.734791 1.216970 140.000107
[Rope2_Seg04]
25 139.999802 0.000000 -0.000060 0.673092 -14.200272 1.612444 139.999802
26 139.999802 0.000000 -0.000060 0.860609 -16.059515 1.099017 139.999802
[Rope2_Seg05]
25 139.999985 -0.000060 0.000119 -1.041259 -24.231140 -1.079925 139.999985
26 139.999985 -0.000060 0.000119 -0.947473 -22.838921 -3.046715 139.999985
[Rope2_Seg06]
25 139.999893 -0.000030 -0.000119 -1.513948 -8.297037 -0.503453 139.999893
26 139.999893 -0.000030 -0.000119 -1.361577 -6.978375 -0.965838 139.999893
[Rope2_Seg07]
25 139.999893 0.000060 -0.000060 -1.026512 -4.136763 -0.307702 139.999893
26 139.999893 0.000060 -0.000060 -0.926627 -3.579164 -0.538442 139.999893
[Rope2_Seg09]
25 121.338966 0.000089 -0.000060 33.793236 -1.359788 -0.847141 121.338966
26 121.338966 0.000089 -0.000060 33.793236 -1.359788 -0.847141 121.338966
[R_mid_hand01]
25 104.680779 11.144459 -10.335981 -44.070736 19.764444 21.986286 105.778534
26 104.680779 11.144459 -10.335981 -44.070736 19.764446 21.986286 105.778534
[R_mid_hand02]
25 104.070427 2.443552 8.231699 74.148849 -24.768806 7.320621 104.424065
26 104.070427 2.443552 8.231699 74.148865 -24.768812 7.320621 104.424065
[R_mid_hand03]
25 106.028137 -11.221827 -5.996406 -166.566208 8.416404 -28.789036 106.788818
26 106.028137 -11.221827 -5.996406 -166.566223 8.416407 -28.789045 106.788818
[spine02]
25 129.756927 0.001550 0.000119 -0.031994 -3.941140 -7.370806 129.756927
26 129.756927 0.001550 0.000119 -0.031994 -3.941140 -7.370806 129.756927
[spine03]
25 79.115562 0.000076 -0.000229 1.907030 -2.965994 23.921791 79.115562
26 79.115601 0.000153 -0.000305 1.907030 -2.965995 23.921799 79.115601
[pelvis]
25 169.435242 0.051022 0.000000 -1.021063 2.849161 -4.294340 169.435257
26 169.435242 0.051022 0.000000 0.001658 3.016139 -4.323353 169.435257
[null_rope03_connect]
25 -1.257226 -2.466202 137.391083 -95.453171 -65.275017 -170.943527 137.418976
26 -1.257226 -2.466202 137.391083 -92.953766 -65.126495 -173.193863 137.418976
[null_rope04_connect]
25 -1.259640 -2.480268 -137.844437 -95.453171 -65.275017 -170.943527 137.872513
26 -1.259640 -2.480268 -137.844437 -92.953766 -65.126495 -173.193863 137.872513
[Rope3_Seg01]
25 0.000000 0.000000 0.000000 -128.546280 -17.574156 -87.054451 0.000000
26 0.000000 0.000000 0.000000 -127.753349 -15.398035 -90.218750 0.000000
[Rope3_Seg02]
25 139.999924 -0.000119 0.000060 -6.935244 0.834214 -42.915363 139.999924
26 139.999924 -0.000119 0.000060 -8.872376 4.276914 -48.665344 139.999924
[Rope3_Seg03]
25 139.999924 -0.000119 0.000119 -43.268978 9.653195 -44.930416 139.999924
26 139.999924 -0.000119 0.000119 -50.347492 12.577454 -50.791187 139.999924
[Rope3_Seg04]
25 139.999924 0.000119 0.000000 -50.194283 16.486406 -29.776289 139.999924
26 139.999924 0.000119 0.000000 -44.162830 20.889273 -27.076326 139.999924
[Rope3_Seg05]
25 139.999924 -0.000238 0.000060 -25.930595 23.045286 -8.353164 139.999924
26 139.999924 -0.000238 0.000060 -17.943430 20.412739 -5.466957 139.999924
[Rope3_Seg06]
25 139.999893 -0.000119 -0.000060 -3.960636 7.637149 1.249933 139.999893
26 139.999893 -0.000119 -0.000060 -3.165533 6.913075 0.727390 139.999893
[Rope3_Seg07]
25 139.999771 0.000060 -0.000119 -1.484837 4.279505 1.015296 139.999771
26 139.999771 0.000060 -0.000119 -1.227816 4.000857 0.646688 139.999771
[Rope3_Seg08]
25 139.999985 -0.000060 0.000000 -0.455179 2.383262 0.630331 139.999985
26 139.999985 -0.000060 0.000000 -0.346186 2.268226 0.420223 139.999985
[Rope3_Seg09]
25 90.185997 -0.000179 -0.000060 89.793228 -1.359877 -0.847183 90.185997
26 90.185997 -0.000179 -0.000060 89.793228 -1.359877 -0.847183 90.185997
[R_rear_hand01]
25 103.366196 -6.073594 -10.757982 -160.090088 14.865479 -24.717995 104.101845
26 103.366196 -6.073594 -10.757982 -160.090088 14.865480 -24.717997 104.101845
[R_rear_hand02]
25 100.509819 12.039542 -7.992327 -35.711582 16.148796 24.170401 101.543350
26 100.509819 12.039542 -7.992327 -35.711582 16.148800 24.170403 101.543350
[R_rear_hand03]
25 101.539970 5.215704 5.435467 83.699936 -25.497597 6.583542 101.819031
26 101.539970 5.215704 5.435467 83.699944 -25.497602 6.583543 101.819031
[Rope4_Seg01]
25 -0.000010 -0.000003 -0.000153 42.521290 3.775259 -131.759674 0.000153
26 -0.000010 0.000000 -0.000153 42.658085 5.870645 -127.468788 0.000153
[Rope4_Seg02]
25 139.999985 0.000060 0.000119 78.502060 -66.630615 -1.437129 139.999985
26 139.999985 0.000060 0.000119 52.390259 -68.680000 19.262222 139.999985
[Rope4_Seg03]
25 139.999924 0.000000 -0.000238 39.998001 -6.412746 36.749477 139.999924
26 139.999924 0.000000 -0.000238 34.739052 -9.194251 39.283234 139.999924
[Rope4_Seg04]
25 139.999985 0.000000 0.000119 12.708041 8.973351 27.385132 139.999985
26 139.999985 0.000000 0.000119 10.114282 4.074481 23.775829 139.999985
[Rope4_Seg05]
25 139.999802 -0.000060 -0.000119 5.227857 13.742686 27.870329 139.999802
26 139.999802 -0.000060 -0.000119 5.527610 9.206875 32.392597 139.999802
[Rope4_Seg06]
25 139.999924 0.000000 0.000060 -0.625208 5.175057 8.744930 139.999924
26 139.999924 0.000000 0.000060 -1.021007 4.602975 12.160364 139.999924
[Rope4_Seg07]
25 139.999802 0.000000 0.000000 -0.746385 2.730705 4.759308 139.999802
26 139.999802 0.000000 0.000000 -1.168701 2.194239 6.136127 139.999802
[Rope4_Seg08]
25 139.999924 0.000000 0.000119 -2.097017 1.465123 2.641481 139.999924
26 139.999924 0.000000 0.000119 -2.380607 1.115359 3.342923 139.999924
[Rope4_Seg09]
25 90.185791 0.000060 0.000060 -135.617828 2.228885 0.850567 90.185791
26 90.185791 0.000060 0.000060 -135.617828 2.228885 0.850567 90.185791
[L_rear_hand01]
25 101.696655 -8.392275 -7.654577 -36.242058 -14.765300 157.809067 102.329041
26 101.696655 -8.392275 -7.654577 -36.242065 -14.765306 157.809082 102.329041
[L_rear_hand02]
25 102.726799 -1.568258 5.773216 83.814362 23.151863 173.698151 102.900848
26 102.726799 -1.568258 5.773216 83.814369 23.151869 173.698151 102.900848
[L_rear_hand03]
25 104.552910 9.721220 -10.420293 -159.518845 -14.052428 -157.569275 105.519653
26 104.552910 9.721220 -10.420293 -159.518845 -14.052429 -157.569290 105.519653
